<svg width="78" height="77" viewBox="0 0 78 77" fill="none" xmlns="http://www.w3.org/2000/svg">
<path d="M51.9518 36.9514C56.8466 42.7326 65.1655 34.1157 65.142 28.0835C70.6722 18.3173 59.8588 11.9792 53.8619 21.0511C47.8414 24.0907 44.9861 35.5865 51.9518 36.9514ZM52.8735 35.3237C46.3745 34.653 50.7438 24.6594 54.7954 22.4395L54.9091 21.859C60.0981 13.8343 68.1228 19.0233 62.9338 27.048L62.8201 27.6285C63.0711 32.4998 56.6074 40.8775 52.293 35.21L52.8735 35.3237Z" fill="#4AB1D2" fill-opacity="0.52"/>
<path d="M34.1611 26.2322C39.0559 32.0134 47.3748 23.3965 47.3512 17.3643C52.8814 7.59814 42.0681 1.25997 35.9574 10.9123C29.9369 13.952 27.0816 25.4478 34.0473 26.8127L34.1611 26.2322ZM35.0828 24.6045C28.5838 23.9338 32.9531 13.9402 37.0046 11.7203L37.1184 11.1398C42.3073 3.11514 50.332 8.30412 45.1431 16.3288L45.0293 16.9093C45.2803 21.7806 38.8167 30.1583 34.5023 24.4908L35.0828 24.6045Z" fill="#4AB1D2" fill-opacity="0.52"/>
<path d="M57.9527 58.6211C62.4945 63.1277 69.9034 59.1545 68.7189 52.8948C72.5195 45.8036 62.2866 39.5792 57.3251 46.4429C51.5321 48.3216 51.6812 56.7895 57.3722 58.5074L57.9527 58.6211ZM58.8744 56.9934L58.2939 56.8797C53.7638 55.3893 53.8541 48.7766 58.2586 47.8313L58.9528 47.3646C62.4121 42.0148 70.4368 47.2038 66.9775 52.5536L66.8638 53.1341C67.809 57.5386 62.2553 61.2725 58.7606 57.5739L58.8744 56.9934Z" fill="#4AB1D2" fill-opacity="0.52"/>
<path d="M12.6049 31.6526C17.1467 36.1591 24.5557 32.186 23.3712 25.9263C27.1717 18.8351 16.9389 12.6106 11.9774 19.4744C6.18437 21.3531 6.33341 29.821 12.0244 31.5388L12.6049 31.6526ZM13.5266 30.0249L12.9461 29.9112C8.41607 28.4208 8.50627 21.808 12.9108 20.8628L13.6051 20.3961C17.0644 15.0463 25.0891 20.2353 21.6297 25.585L21.516 26.1655C22.4612 30.5701 16.9075 34.304 13.4129 30.6054L13.5266 30.0249Z" fill="#4AB1D2" fill-opacity="0.52"/>
<path d="M49.0061 55.0598C58.3369 38.2025 30.3132 21.2589 19.9353 37.3082C0.00688806 43.6503 9.80831 58.2289 22.1356 66.0693C34.5766 73.3291 52.7988 75.6942 49.0061 55.0598ZM47.2647 54.7186L47.151 55.2991C50.7044 74.0783 34.2236 72.0544 22.9435 65.022C11.6635 57.9897 1.52083 45.1525 20.1745 39.1634L20.8687 38.6967C30.4387 23.6945 55.6738 39.4889 47.2647 54.7186Z" fill="#4AB1D2" fill-opacity="0.52"/>
</svg>
