<svg width="67" height="67" viewBox="0 0 67 67" fill="none" xmlns="http://www.w3.org/2000/svg">
<path d="M10.6597 58.0115C16.9143 63.8317 24.9698 67 33.4721 67C33.8769 67 34.2818 67 34.6867 66.9721C53.1432 66.3161 67.6347 50.7676 66.9786 32.316C66.6575 23.3693 62.888 15.0926 56.3263 8.99323C49.7925 2.89387 41.2763 -0.274449 32.3133 0.0186549C13.8568 0.674651 -0.634736 16.2231 0.0214329 34.6887C0.328576 43.6354 4.11202 51.9121 10.6597 58.0115ZM59.7328 49.4556C55.6282 44.8636 53.2549 39.0295 53.0315 32.8184C52.8081 26.6074 54.7766 20.6058 58.5461 15.7346C62.0084 20.5778 63.977 26.3422 64.2003 32.4276C64.4097 38.6387 62.7484 44.5007 59.7328 49.4556ZM32.411 2.81013C32.788 2.79617 33.151 2.79617 33.5279 2.79617C41.3182 2.79617 48.7036 5.6993 54.4416 11.031C55.2792 11.7987 56.0471 12.6221 56.773 13.4735C52.3195 18.9588 49.988 25.7979 50.2393 32.9022C50.4906 40.0065 53.2968 46.6641 58.1133 51.8144C52.7383 59.0303 44.25 63.8317 34.575 64.1806C26.3938 64.4877 18.5617 61.5566 12.5584 55.9737C11.7208 55.206 10.9529 54.3825 10.227 53.5312C14.6805 48.0459 17.012 41.2068 16.7607 34.1025C16.5094 26.9982 13.7032 20.3406 8.88669 15.1903C14.2617 7.96039 22.736 3.15906 32.411 2.81013ZM7.26721 17.5491C11.3718 22.1411 13.7451 27.9752 13.9685 34.1863C14.1919 40.3973 12.2234 46.3989 8.4539 51.2701C4.99156 46.4269 3.02306 40.6625 2.79968 34.5771C2.59026 28.366 4.25163 22.504 7.26721 17.5491Z" fill="#9ED6E7"/>
<path d="M32.2427 30.7168C30.0527 30.7168 28.6427 32.3768 27.7727 33.6268C26.9427 34.8168 26.1327 36.0968 26.1327 37.4468C26.1327 38.3468 26.3727 38.9968 26.8827 39.4368C27.7127 40.1768 28.8827 40.0368 30.2227 39.8768C31.5127 39.7168 32.9627 39.7168 34.2527 39.8768C34.8027 39.9468 35.3227 40.0068 35.8027 40.0068C36.4927 40.0068 37.1027 39.8768 37.5927 39.4368C38.0927 38.9868 38.3427 38.3368 38.3427 37.4468C38.3427 36.0268 37.4327 34.7168 36.7027 33.6668C35.7527 32.2968 34.3827 30.7168 32.2427 30.7168ZM36.2727 37.9468C36.0727 38.0868 35.1227 37.9768 34.4927 37.8968C33.8227 37.8168 33.0627 37.7268 32.2327 37.7268C31.4027 37.7268 30.6527 37.8168 29.9727 37.8968C29.3427 37.9768 28.4027 38.0868 28.2027 37.9568C28.2027 37.9568 28.1227 37.8468 28.1227 37.4568C28.1227 36.6868 28.7827 35.6668 29.4027 34.7768C30.4027 33.3368 31.2427 32.7268 32.2227 32.7268C33.1827 32.7268 34.0227 33.3568 35.0427 34.8268C35.6127 35.6468 36.3227 36.6668 36.3227 37.4568C36.3427 37.8268 36.2727 37.9468 36.2727 37.9468Z" fill="#9ED6E7"/>
<path d="M37.0027 32.3468C37.3927 32.5268 37.9227 32.6768 38.4727 32.6768C38.9427 32.6768 39.4427 32.5768 39.8827 32.3068C40.4227 31.9868 41.0827 31.3268 41.1627 29.9768C41.1927 29.5468 41.2527 29.1168 41.3227 28.7168C41.5127 27.4768 41.7627 25.9368 40.4327 25.3068C39.6427 24.9368 38.6627 25.1668 37.6527 25.9568C36.8927 26.5568 36.2027 27.4168 35.8027 28.2568C35.3627 29.1768 35.2727 30.0268 35.5127 30.7668C35.7527 31.4468 36.2627 31.9968 37.0027 32.3468ZM37.6227 29.1168C38.1127 28.0668 39.0927 27.2768 39.4827 27.1368C39.5027 27.4268 39.4127 28.0068 39.3427 28.4068C39.2727 28.8468 39.1927 29.3568 39.1627 29.8568C39.1427 30.2368 39.0427 30.4868 38.8627 30.5868C38.6127 30.7368 38.1527 30.6868 37.8527 30.5368C37.6127 30.4268 37.4727 30.2868 37.4227 30.1368C37.3427 29.9068 37.4127 29.5468 37.6227 29.1168Z" fill="#9ED6E7"/>
<path d="M23.3226 29.9768C23.4026 31.3268 24.0626 31.9868 24.6026 32.3068C25.0526 32.5768 25.5426 32.6768 26.0126 32.6768C26.5626 32.6768 27.0926 32.5368 27.4826 32.3468C28.2226 31.9968 28.7326 31.4468 28.9626 30.7668C29.2126 30.0268 29.1126 29.1868 28.6726 28.2568C28.2726 27.4068 27.5826 26.5468 26.8226 25.9568C25.8226 25.1668 24.8326 24.9368 24.0426 25.3068C22.7126 25.9368 22.9626 27.4768 23.1526 28.7168C23.2226 29.1168 23.2926 29.5468 23.3226 29.9768ZM26.8626 29.1168C27.0626 29.5468 27.1326 29.9068 27.0626 30.1368C27.0126 30.2968 26.8626 30.4268 26.6326 30.5368C26.3326 30.6768 25.8726 30.7368 25.6226 30.5868C25.4426 30.4868 25.3426 30.2368 25.3226 29.8568C25.2926 29.3468 25.2126 28.8468 25.1426 28.4068C25.0826 28.0168 24.9926 27.4768 25.0026 27.1668C25.4526 27.3268 26.3926 28.1068 26.8626 29.1168Z" fill="#9ED6E7"/>
<path d="M31.9027 29.807C31.9827 29.817 32.0727 29.817 32.1727 29.817C32.9527 29.817 33.9627 29.547 34.5927 28.757C34.9827 28.267 35.3727 27.417 34.9727 26.127C34.8527 25.717 34.7627 25.287 34.6827 24.887C34.4327 23.657 34.1227 22.127 32.6627 22.007C30.8827 21.847 29.5227 24.457 29.3627 26.387C29.1627 28.737 30.5427 29.697 31.9027 29.807ZM31.3527 26.567C31.4527 25.417 32.0927 24.327 32.4127 24.067C32.5327 24.337 32.6427 24.907 32.7227 25.297C32.8127 25.737 32.9127 26.237 33.0627 26.717C33.1727 27.077 33.1627 27.347 33.0327 27.507C32.8427 27.737 32.3827 27.847 32.0727 27.817C31.7527 27.787 31.2527 27.747 31.3527 26.567Z" fill="#9ED6E7"/>
</svg>
