<svg width="72" height="62" viewBox="0 0 72 62" fill="none" xmlns="http://www.w3.org/2000/svg">
<path d="M61.1382 14.216C59.2723 9.80619 54.1526 7.73089 49.7427 9.59682C45.8551 11.2418 43.7931 15.2612 44.5856 19.2359L21.1438 29.1548C18.8427 25.8185 14.522 24.4997 10.6344 26.1447C6.22452 28.0106 4.14922 33.1303 6.01515 37.5402C6.82536 39.455 8.22472 40.9836 10.0325 41.8606C9.42776 43.8268 9.52604 45.8376 10.3362 47.7524C12.2022 52.1623 17.3219 54.2376 21.7317 52.3716C25.6194 50.7267 27.6813 46.7072 26.8889 42.7325L50.2727 32.8382C52.5737 36.1745 56.8944 37.4933 60.7821 35.8483C65.1919 33.9824 67.2672 28.8627 65.4013 24.4529C64.5911 22.5381 63.1917 21.0094 61.384 20.1324C62.0467 18.1416 61.9484 16.1308 61.1382 14.216ZM58.7662 22.6767C60.3776 23.0895 61.6876 24.2455 62.326 25.7541C63.4799 28.4812 62.208 31.6191 59.4808 32.7731C56.8117 33.9024 53.7229 32.7465 52.511 30.0439C52.1427 29.1736 51.1763 28.8299 50.306 29.1982L24.2531 40.2219C23.3827 40.5902 23.0391 41.5566 23.3248 42.3934C24.3961 45.0871 23.1576 48.1424 20.4305 49.2964C17.7034 50.4503 14.5655 49.1783 13.4115 46.4512C12.7732 44.9426 12.8557 43.1973 13.6814 41.7534C13.9648 41.2914 13.9424 40.7535 13.746 40.2893C13.5496 39.8251 13.1211 39.4591 12.6502 39.3163C11.0389 38.9035 9.72878 37.7475 9.09044 36.2389C7.93651 33.5118 9.20846 30.3739 11.9356 29.22C14.6047 28.0906 17.6935 29.2465 18.9055 31.9491C19.2737 32.8194 20.2401 33.1631 21.1105 32.7948L47.2794 21.722C48.1498 21.3537 48.4934 20.3874 48.2077 19.5505C47.1364 16.8568 48.3748 13.8015 51.102 12.6476C53.8291 11.4936 56.967 12.7656 58.1209 15.4927C58.7593 17.0014 58.6768 18.7466 57.8511 20.1906C57.5677 20.6525 57.59 21.1904 57.7865 21.6546C57.8668 22.1679 58.2953 22.5339 58.7662 22.6767Z" fill="#A0D6E7"/>
<path d="M30.6306 18.9152C31.5009 18.5469 31.9026 17.556 31.5343 16.6856L29.7911 12.5659C29.4229 11.6955 28.432 11.2939 27.5616 11.6621C26.6912 12.0304 26.2896 13.0213 26.6578 13.8917L28.401 18.0114C28.7693 18.8818 29.7602 19.2834 30.6306 18.9152Z" fill="#A0D6E7"/>
<path d="M36.8571 17.7857C37.1383 17.8035 37.3369 17.7879 37.569 17.6897C38.1492 17.4442 38.5822 16.8505 38.5933 16.2301L38.7627 11.78C38.7917 10.8784 38.0507 10.0973 37.1245 10.0103C36.2229 9.98131 35.4418 10.7223 35.3548 11.6485L35.1854 16.0986C35.1564 17.0002 35.8974 17.7813 36.8571 17.7857Z" fill="#A0D6E7"/>
<path d="M23.1343 22.7029C23.6699 23.1603 24.3149 23.2295 24.8951 22.984C25.1272 22.8858 25.3348 22.7295 25.4598 22.5398C26.0668 21.8725 26.0221 20.7968 25.3302 20.1318L22.0182 17.1548C21.3508 16.5478 20.2752 16.5925 19.6101 17.2843C19.0031 17.9517 19.0478 19.0274 19.7397 19.6924L23.1343 22.7029Z" fill="#A0D6E7"/>
<path d="M40.8441 43.0533C39.9737 43.4215 39.572 44.4124 39.9403 45.2828L41.6835 49.4025C42.0517 50.2729 43.0427 50.6746 43.913 50.3063C44.7834 49.938 45.1851 48.9471 44.8168 48.0767L43.0736 43.957C42.7053 43.0867 41.7144 42.685 40.8441 43.0533Z" fill="#A0D6E7"/>
<path d="M34.6174 44.1828C33.7158 44.1539 32.9347 44.8948 32.8477 45.821L32.6783 50.2711C32.6493 51.1728 33.3903 51.9538 34.3164 52.0408C34.5976 52.0587 34.7963 52.043 35.0284 51.9448C35.6086 51.6993 36.0415 51.1057 36.0527 50.4852L36.2221 46.0351C36.318 44.9683 35.577 44.1873 34.6174 44.1828Z" fill="#A0D6E7"/>
<path d="M48.3403 39.2656C47.673 38.6586 46.5973 38.7033 45.9322 39.3952C45.3252 40.0625 45.3699 41.1382 46.0618 41.8032L49.3738 44.7802C49.9095 45.2377 50.5544 45.3069 51.1347 45.0614C51.3668 44.9632 51.5743 44.8069 51.6993 44.6172C52.3063 43.9499 52.2616 42.8742 51.5697 42.2092L48.3403 39.2656Z" fill="#A0D6E7"/>
</svg>
