<svg width="52" height="48" viewBox="0 0 52 48" fill="none" xmlns="http://www.w3.org/2000/svg">
<path d="M26.578 22.9683C22.7578 25.5076 24.3584 29.0653 22.9916 34.0545C21.1355 41.3387 24.8861 44.1317 28.7166 42.7379C32.3906 41.3894 32.7027 36.8484 36.0939 34.5766C39.4852 32.3047 44.5931 33.4134 47.1565 30.6628C49.7199 27.9122 47.8013 23.8722 39.4432 23.2717C33.7146 22.9166 30.4386 20.5608 26.578 22.9683Z" fill="#839AA9"/>
<path d="M15.2782 26.6635C19.3261 27.6476 22.0571 30.448 21.0582 32.7466C20.0593 35.0452 15.9916 36.2204 11.7467 35.1495C7.69879 34.1653 4.96779 31.3649 5.9667 29.0663C6.96561 26.7677 11.0738 25.7245 15.2782 26.6635Z" fill="#839AA9"/>
<path d="M33.8744 14.5431C33.6732 18.3341 35.9349 21.2701 38.7966 21.1612C41.6583 21.0524 44.1005 17.9061 44.1452 14.1603C44.3464 10.3692 42.0848 7.43327 39.2231 7.54212C36.5179 7.60577 34.0756 10.7521 33.8744 14.5431Z" fill="#839AA9"/>
<path d="M18.587 15.2267C21.7874 17.8915 22.7621 21.6299 20.6225 23.5402C18.4829 25.4505 14.0464 24.8657 10.846 22.2009C7.64566 19.5361 6.67089 15.7977 8.81052 13.8874C10.9905 12.109 15.2302 12.6071 18.587 15.2267Z" fill="#839AA9"/>
<path d="M20.5753 13.9344C22.4888 17.4017 26.1533 19.3581 29.0047 18.1036C31.6997 16.8943 32.4106 13.0996 30.4568 9.50042C28.5433 6.03316 24.8787 4.07677 22.0273 5.33124C19.3324 6.54051 18.6618 10.4671 20.5753 13.9344Z" fill="#839AA9"/>
</svg>
