<svg width="51" height="44" viewBox="0 0 51 44" fill="none" xmlns="http://www.w3.org/2000/svg">
<path d="M43.1122 10.0245C41.7965 6.91487 38.1863 5.45145 35.0766 6.76723C32.3352 7.92719 30.8812 10.7615 31.44 13.5643L14.9098 20.5587C13.2872 18.2061 10.2404 17.2761 7.499 18.4361C4.38935 19.7519 2.92594 23.3621 4.24171 26.4717C4.81304 27.822 5.79982 28.8999 7.07457 29.5184C6.64815 30.9048 6.71745 32.3228 7.28878 33.673C8.60455 36.7826 12.2148 38.2461 15.3244 36.9303C18.0658 35.7703 19.5198 32.936 18.961 30.1332L35.4503 23.1561C37.0729 25.5087 40.1197 26.4387 42.8611 25.2787C45.9708 23.9629 47.4342 20.3527 46.1184 17.2431C45.5471 15.8929 44.5603 14.8149 43.2855 14.1965C43.7529 12.7927 43.6836 11.3747 43.1122 10.0245ZM41.4396 15.9906C42.5759 16.2817 43.4997 17.0969 43.9498 18.1607C44.7635 20.0837 43.8666 22.2965 41.9435 23.1102C40.0614 23.9066 37.8833 23.0915 37.0287 21.1857C36.769 20.572 36.0875 20.3296 35.4738 20.5893L17.1024 28.3628C16.4886 28.6225 16.2463 29.3039 16.4477 29.8941C17.2032 31.7935 16.3299 33.948 14.4068 34.7617C12.4838 35.5754 10.271 34.6785 9.45734 32.7554C9.00721 31.6916 9.06538 30.4609 9.64762 29.4427C9.84747 29.1169 9.83172 28.7377 9.69322 28.4103C9.55471 28.083 9.25254 27.8249 8.92048 27.7242C7.78423 27.4331 6.86041 26.618 6.41028 25.5541C5.59658 23.6311 6.49351 21.4184 8.41658 20.6047C10.2987 19.8083 12.4768 20.6234 13.3314 22.5291C13.5911 23.1429 14.2726 23.3852 14.8863 23.1255L33.3396 15.3174C33.9533 15.0577 34.1957 14.3763 33.9942 13.7861C33.2387 11.8867 34.112 9.73218 36.0351 8.91848C37.9582 8.10478 40.1709 9.00171 40.9846 10.9248C41.4347 11.9886 41.3766 13.2193 40.7943 14.2375C40.5945 14.5633 40.6102 14.9425 40.7487 15.2699C40.8054 15.6318 41.1076 15.8899 41.4396 15.9906Z" fill="#839AA9"/>
<path d="M21.5994 13.3381C22.2132 13.0785 22.4964 12.3797 22.2367 11.766L21.0075 8.8609C20.7478 8.24715 20.0491 7.96391 19.4353 8.2236C18.8216 8.4833 18.5383 9.18205 18.798 9.79579L20.0272 12.7009C20.2869 13.3146 20.9857 13.5978 21.5994 13.3381Z" fill="#839AA9"/>
<path d="M25.9901 12.5417C26.1884 12.5543 26.3285 12.5432 26.4921 12.474C26.9013 12.3009 27.2066 11.8822 27.2144 11.4447L27.3339 8.30671C27.3543 7.67092 26.8318 7.12013 26.1787 7.05879C25.5429 7.03836 24.9921 7.56086 24.9308 8.21396L24.8113 11.352C24.7909 11.9878 25.3134 12.5386 25.9901 12.5417Z" fill="#839AA9"/>
<path d="M16.3134 16.0091C16.6911 16.3317 17.1459 16.3804 17.5551 16.2073C17.7187 16.1381 17.8651 16.0279 17.9532 15.8941C18.3812 15.4235 18.3497 14.665 17.8618 14.1961L15.5263 12.0968C15.0558 11.6688 14.2972 11.7003 13.8283 12.1881C13.4002 12.6587 13.4317 13.4173 13.9196 13.8862L16.3134 16.0091Z" fill="#839AA9"/>
<path d="M28.8016 30.3593C28.1879 30.619 27.9047 31.3178 28.1643 31.9315L29.3936 34.8366C29.6533 35.4503 30.352 35.7336 30.9657 35.4739C31.5795 35.2142 31.8627 34.5154 31.603 33.9017L30.3738 30.9966C30.1141 30.3829 29.4154 30.0997 28.8016 30.3593Z" fill="#839AA9"/>
<path d="M24.4108 31.1559C23.775 31.1355 23.2242 31.658 23.1629 32.3111L23.0434 35.4491C23.023 36.0849 23.5455 36.6357 24.1986 36.697C24.3969 36.7096 24.5369 36.6986 24.7006 36.6293C25.1098 36.4562 25.415 36.0376 25.4229 35.6001L25.5424 32.462C25.61 31.7098 25.0875 31.159 24.4108 31.1559Z" fill="#839AA9"/>
<path d="M34.0876 27.6885C33.617 27.2604 32.8585 27.2919 32.3896 27.7798C31.9615 28.2504 31.993 29.0089 32.4809 29.4779L34.8164 31.5771C35.1941 31.8997 35.6489 31.9485 36.0581 31.7754C36.2218 31.7061 36.3681 31.596 36.4562 31.4622C36.8843 30.9916 36.8528 30.2331 36.3649 29.7641L34.0876 27.6885Z" fill="#839AA9"/>
</svg>
