<svg width="50" height="48" viewBox="0 0 50 48" fill="none" xmlns="http://www.w3.org/2000/svg">
<path d="M26.0673 23.3666C21.4904 23.5733 21.0288 27.4423 17.2904 31.0089C11.9519 36.288 13.7241 40.6093 17.7202 41.3883C21.559 42.1255 24.1639 38.3996 28.236 38.2009C32.3081 38.0023 36.1092 41.5808 39.7192 40.5462C43.3293 39.5117 43.767 35.0661 36.9224 30.2493C32.2022 26.9963 30.611 23.2935 26.0673 23.3666Z" fill="#839AA9"/>
<path d="M14.4936 20.712C17.4515 23.6383 18.3474 27.4411 16.3091 28.8942C14.2708 30.3473 10.1842 29.259 7.10235 26.1572C4.14437 23.2309 3.24856 19.4282 5.28687 17.975C7.32517 16.5219 11.3784 17.7439 14.4936 20.712Z" fill="#839AA9"/>
<path d="M36.6497 19.9117C34.5259 23.0529 34.9502 26.7301 37.4555 28.1101C39.9609 29.4902 43.6709 28.0545 45.6376 24.8715C47.7614 21.7303 47.3371 18.0531 44.8318 16.6731C42.4836 15.3349 38.7736 16.7705 36.6497 19.9117Z" fill="#839AA9"/>
<path d="M23.2132 12.6267C24.5806 16.555 23.4903 20.2566 20.6756 20.7901C17.8608 21.3236 14.3647 18.5392 12.9974 14.6108C11.63 10.6825 12.7203 6.9809 15.535 6.44738C18.3164 6.04755 21.6887 8.65646 23.2132 12.6267Z" fill="#839AA9"/>
<path d="M25.5803 12.5441C25.4331 16.4969 27.5624 20.0579 30.6487 20.4521C33.5779 20.8044 36.1399 17.9225 36.3205 13.8361C36.4677 9.88343 34.3384 6.32243 31.252 5.92821C28.3229 5.57585 25.7275 8.59144 25.5803 12.5441Z" fill="#839AA9"/>
</svg>
