<svg width="193" height="51" viewBox="0 0 193 51" fill="none" xmlns="http://www.w3.org/2000/svg">
<path d="M56.515 20.8037V15.8037C57.5567 15.7308 58.2754 15.6943 58.6713 15.6943C59.8067 15.6631 60.8171 15.6995 61.7025 15.8037C61.7338 16.1058 61.7494 16.3193 61.7494 16.4443C61.8431 17.4964 61.89 18.137 61.89 18.3662C61.89 19.1787 61.8327 19.9912 61.7181 20.8037H56.515ZM65.4369 11.6318L65.2181 11.5693C65.239 11.5693 65.0411 11.5381 64.6244 11.4756C64.114 11.4027 63.6036 11.335 63.0931 11.2725C61.4161 11.085 59.9161 11.0016 58.5931 11.0225C57.2702 11.0433 55.6452 11.1579 53.7181 11.3662C53.1244 11.4391 52.5306 11.512 51.9369 11.585C51.4473 11.6579 51.2077 11.6943 51.2181 11.6943L50.8119 11.7568L50.39 11.835L51.0619 12.3506C51.4577 12.6631 51.7442 12.9704 51.9213 13.2725C52.14 13.6475 52.2494 14.0745 52.2494 14.5537V33.1943H56.515V24.8037H65.4681L65.4994 24.6162L65.515 24.5068C65.5671 24.2881 65.6296 23.9443 65.7025 23.4756C65.9942 21.7568 66.14 20.1318 66.14 18.6006C66.14 15.8714 65.9265 13.6266 65.4994 11.8662L65.4369 11.6318ZM84.2806 32.3193C84.3015 32.3193 84.0879 32.3662 83.64 32.46C83.0983 32.5745 82.5411 32.6735 81.9681 32.7568C80.114 33.0485 78.3692 33.1943 76.7338 33.1943C73.9629 33.1943 71.739 32.9652 70.0619 32.5068L69.8119 32.4131V13.6318C69.8119 12.5902 69.3692 11.7308 68.4838 11.0537H74.0775L74.0463 28.46C74.5046 28.5329 75.4004 28.5693 76.7338 28.5693C78.0879 28.5693 78.9681 28.5329 79.3744 28.46V11.0537L83.7025 11.0225V29.6318C83.7025 30.5381 83.9161 31.2308 84.3431 31.71C84.5619 31.9391 84.7806 32.085 84.9994 32.1475L84.2806 32.3193ZM93.4838 20.8037V15.8037C94.5254 15.7308 95.2442 15.6943 95.64 15.6943C96.7754 15.6631 97.7858 15.6995 98.6713 15.8037C98.7025 16.1058 98.7181 16.3193 98.7181 16.4443C98.8119 17.4964 98.8588 18.137 98.8588 18.3662C98.8588 19.1787 98.8015 19.9912 98.6869 20.8037H93.4838ZM102.406 11.6318L102.187 11.5693C102.208 11.5693 102.01 11.5381 101.593 11.4756C101.083 11.4027 100.572 11.335 100.062 11.2725C98.3848 11.085 96.8848 11.0016 95.5619 11.0225C94.239 11.0433 92.614 11.1579 90.6869 11.3662C90.0931 11.4391 89.4994 11.512 88.9056 11.585C88.4161 11.6579 88.1765 11.6943 88.1869 11.6943L87.7806 11.7568L87.3588 11.835L88.0306 12.3506C88.4265 12.6631 88.7129 12.9704 88.89 13.2725C89.1088 13.6475 89.2181 14.0745 89.2181 14.5537V33.1943H93.4838V24.8037H102.437L102.468 24.6162L102.484 24.5068C102.536 24.2881 102.598 23.9443 102.671 23.4756C102.963 21.7568 103.109 20.1318 103.109 18.6006C103.109 15.8714 102.895 13.6266 102.468 11.8662L102.406 11.6318Z" fill="#FFAA00"/>
<path d="M119.812 13.3818C119.791 12.9339 119.906 12.5225 120.156 12.1475C120.218 12.0537 120.385 11.861 120.656 11.5693L121.234 10.9287H115.624V20.2881H111.203V10.9287H105.453L106.218 11.6006C106.781 12.0902 107.051 12.6891 107.031 13.3975V30.7256C107.051 31.1735 106.953 31.5745 106.734 31.9287C106.692 31.9808 106.572 32.1162 106.374 32.335L105.593 33.1943H111.203V24.8037H115.624V33.1943H121.374L120.656 32.5225C120.114 32.0329 119.833 31.4287 119.812 30.71V13.3818ZM139.531 32.3193C139.551 32.3193 139.338 32.3662 138.89 32.46C138.348 32.5745 137.791 32.6735 137.218 32.7568C135.364 33.0485 133.619 33.1943 131.984 33.1943C129.213 33.1943 126.989 32.9652 125.312 32.5068L125.062 32.4131V13.6318C125.062 12.5902 124.619 11.7308 123.734 11.0537H129.328L129.296 28.46C129.755 28.5329 130.65 28.5693 131.984 28.5693C133.338 28.5693 134.218 28.5329 134.624 28.46V11.0537L138.953 11.0225V29.6318C138.953 30.5381 139.166 31.2308 139.593 31.71C139.812 31.9391 140.031 32.085 140.249 32.1475L139.531 32.3193ZM150.64 28.8506C149.765 28.8506 149.005 28.8089 148.359 28.7256V24.1631H153.218C153.479 24.7152 153.609 25.4964 153.609 26.5068C153.609 27.5277 153.473 28.2412 153.203 28.6475C152.463 28.7829 151.609 28.8506 150.64 28.8506ZM153.265 17.6318C153.265 18.6318 153.14 19.4183 152.89 19.9912H148.359V15.4443C149.223 15.3402 149.932 15.2829 150.484 15.2725H150.64C151.234 15.2725 151.973 15.3402 152.859 15.4756C153.13 15.8923 153.265 16.611 153.265 17.6318ZM157.984 17.2568C157.984 15.4964 157.624 13.6527 156.906 11.7256L156.765 11.5068L156.546 11.4756C154.536 11.111 152.64 10.9287 150.859 10.9287H150.578C148.734 10.9495 146.343 11.1631 143.406 11.5693L142.624 11.6787L143.203 12.2256C143.859 12.8402 144.187 13.5537 144.187 14.3662V29.7412C144.187 30.5954 143.864 31.3089 143.218 31.8818L142.609 32.4131L143.406 32.5381C145.801 32.9443 148.192 33.1631 150.578 33.1943H150.843C152.697 33.1943 154.687 33.0173 156.812 32.6631L157.046 32.6162L157.109 32.3975C157.817 30.012 158.171 27.8975 158.171 26.0537C158.171 24.9079 157.859 23.5693 157.234 22.0381C157.734 20.4548 157.984 18.861 157.984 17.2568Z" fill="#FFE55E"/>
<path d="M25.222 24.1205C24.8738 28.3052 28.364 29.274 31.1922 33.1748C35.4012 38.7716 39.568 37.7766 40.7511 34.2593C41.8773 30.8788 38.77 27.9845 39.0663 24.2593C39.3627 20.534 43.0873 17.5915 42.5636 14.167C42.0399 10.7425 38.0188 9.71343 32.8022 15.2432C29.2678 19.0664 25.6888 19.9849 25.222 24.1205Z" fill="#FFE55E"/>
<path d="M19.176 12.8774C21.8041 15.252 25.2226 15.3892 26.7811 13.3107C28.3397 11.2322 27.4603 7.65995 24.7753 5.42218C22.1472 3.04766 18.7287 2.91038 17.1702 4.98888C15.6685 6.93063 16.5479 10.5029 19.176 12.8774Z" fill="#FFAA00"/>
<path d="M11.2505 23.2065C14.8542 23.9018 18.3665 22.4746 19.0902 19.7285C19.757 17.1193 17.4179 14.3837 13.6956 13.6392C10.0919 12.944 6.57956 14.3712 5.85591 17.1172C5.18906 19.7265 7.64676 22.5113 11.2505 23.2065Z" fill="#FFAA00"/>
<path d="M11.856 35.8499C15.4597 36.5451 18.972 35.1179 19.6956 32.3719C20.3625 29.7626 18.0234 27.0271 14.3011 26.2825C10.6973 25.5873 7.18503 27.0145 6.46138 29.7605C5.79453 32.3698 8.25222 35.1546 11.856 35.8499Z" fill="#FFAA00"/>
</svg>
