<svg width="55" height="51" viewBox="0 0 55 51" fill="none" xmlns="http://www.w3.org/2000/svg">
<path d="M39.2031 24.3378C39.1707 24.6515 38.9653 24.9946 38.4915 25.3432C33.8454 28.7615 29.1994 32.1799 24.5533 35.5981C23.5614 36.3279 21.2077 36.4978 21.2077 34.7808C21.2077 28.4556 21.2077 22.1303 21.2077 15.8051C21.2077 14.2513 23.734 13.8684 24.7451 14.5011C29.3911 17.4079 34.0372 20.3148 38.6832 23.2217C39.2152 23.5546 39.332 23.9535 39.2031 24.3378ZM54.9999 29.7294C53.5276 62.4671 -5.96613 55.685 0.489601 21.2228C3.19833 6.76256 16.1474 -0.842202 30.375 0.074172C46.39 1.10573 54.7086 14.6142 54.9986 29.5127C54.9993 29.5502 54.9729 29.5814 54.9676 29.6177C54.9735 29.6582 55.0019 29.684 54.9999 29.7294ZM52.0145 30.153C51.7728 19.6072 47.7398 8.21767 37.3337 3.68478C23.5417 -2.32292 7.29212 4.76266 3.78721 19.3639C0.652332 32.4235 7.62377 44.0023 20.3796 48.1904C33.9773 52.655 51.2715 45.6297 52.0145 30.153Z" fill="white"/>
</svg>
