<svg width="34" height="14" viewBox="0 0 34 14" fill="none" xmlns="http://www.w3.org/2000/svg">
<path d="M33.5879 5.91471C33.9805 5.08907 34.097 4.14514 33.9184 3.23916C33.7793 2.46864 33.4297 1.75927 32.9134 1.20045C32.3971 0.641641 31.7374 0.2584 31.0173 0.0990335C30.4458 -0.0378152 29.8525 -0.0327739 29.2831 0.113769C28.7137 0.260311 28.1835 0.544438 27.7333 0.944237C26.6112 1.89253 25.2142 2.39336 23.7831 2.36037H10.2169C8.78582 2.39336 7.38878 1.89253 6.26668 0.944237C5.81651 0.544438 5.28628 0.260311 4.71689 0.113769C4.14751 -0.0327739 3.55419 -0.0378152 2.98269 0.0990335C2.26261 0.2584 1.60285 0.641641 1.08659 1.20045C0.570324 1.75927 0.220653 2.46864 0.0816483 3.23916C-0.0970523 4.14514 0.0195463 5.08907 0.412146 5.91471C0.554439 6.21192 0.628633 6.54091 0.628633 6.87466C0.628633 7.20841 0.554439 7.53739 0.412146 7.83461C0.0203593 8.66052 -0.0962019 9.60414 0.0816483 10.5102C0.221014 11.2811 0.5707 11.9909 1.08682 12.5506C1.60293 13.1102 2.26249 13.4948 2.98269 13.6559C3.55419 13.7927 4.14751 13.7877 4.71689 13.6411C5.28628 13.4946 5.81651 13.2105 6.26668 12.8107C7.38828 11.8608 8.78524 11.358 10.2169 11.3889H23.7831C25.2148 11.358 26.6117 11.8608 27.7333 12.8107C28.1835 13.2105 28.7137 13.4946 29.2831 13.6411C29.8525 13.7877 30.4458 13.7927 31.0173 13.6559C31.7375 13.4948 32.3971 13.1102 32.9132 12.5506C33.4293 11.9909 33.779 11.2811 33.9184 10.5102C34.0962 9.60414 33.9796 8.66052 33.5879 7.83461C33.4456 7.53739 33.3714 7.20841 33.3714 6.87466C33.3714 6.54091 33.4456 6.21192 33.5879 5.91471Z" fill="#DDCA69"/>
</svg>
