<svg width="34" height="14" viewBox="0 0 34 14" fill="none" xmlns="http://www.w3.org/2000/svg">
<path d="M29.4082 0.597656C29.8983 0.471609 30.4086 0.467287 30.9004 0.584961L30.9092 0.586914C31.5264 0.723515 32.0965 1.05361 32.5459 1.54004C32.9954 2.0266 33.3031 2.64778 33.4258 3.32715V3.32812L33.4277 3.33594C33.5858 4.13745 33.4824 4.97176 33.1367 5.69922C32.9619 6.06462 32.8711 6.46766 32.8711 6.875C32.8711 7.2814 32.9616 7.68314 33.1357 8.04785V8.04883C33.4812 8.77699 33.5852 9.61194 33.4277 10.4141L33.4268 10.4209C33.3038 11.1012 32.9957 11.7242 32.5459 12.2119C32.0964 12.6993 31.5258 13.0298 30.9082 13.168L30.9004 13.1699C30.4086 13.2876 29.8983 13.2833 29.4082 13.1572C28.9176 13.031 28.4577 12.7849 28.0654 12.4365L28.0566 12.4287L27.8262 12.2422C26.6582 11.3385 25.2393 10.8597 23.7832 10.8887H10.2168C8.66349 10.8578 7.15255 11.4047 5.94336 12.4287L5.93457 12.4365C5.54229 12.7849 5.08237 13.031 4.5918 13.1572C4.10169 13.2833 3.59142 13.2876 3.09961 13.1699L3.0918 13.168L2.8623 13.1074C2.3333 12.9449 1.84733 12.6383 1.4541 12.2119C1.00433 11.7242 0.696229 11.1012 0.573242 10.4209L0.572266 10.4141L0.525391 10.1113C0.444573 9.40441 0.562083 8.68583 0.864258 8.04883L0.863281 8.04785C1.03752 7.68304 1.12886 7.28154 1.12891 6.875C1.12891 6.51856 1.05928 6.16535 0.924805 5.83789L0.863281 5.69922C0.517581 4.97176 0.414172 4.13745 0.572266 3.33594L0.573242 3.32812C0.695863 2.64842 1.00441 2.0268 1.4541 1.54004C1.90349 1.05361 2.4736 0.723515 3.09082 0.586914L3.09961 0.584961C3.59141 0.467287 4.10169 0.471609 4.5918 0.597656C5.02099 0.708118 5.42675 0.91035 5.78418 1.19238L5.93457 1.31836L5.94434 1.32617C7.08127 2.28691 8.48391 2.82636 9.9375 2.86035H24.0625C25.5161 2.82636 26.9187 2.28691 28.0557 1.32617L27.7334 0.944336L28.0566 1.32617L28.0654 1.31836C28.4577 0.969983 28.9176 0.723915 29.4082 0.597656Z" stroke="#DDCA69"/>
</svg>
