<svg width="87" height="94" viewBox="0 0 87 94" fill="none" xmlns="http://www.w3.org/2000/svg">
<path d="M56.8032 27.437C56.5756 26.3495 55.9536 25.5327 55.0984 25.1955C55.0372 25.1713 54.9731 25.1686 54.9111 25.1497C55.5239 22.1147 57.2522 11.0812 51.59 4.62417C48.3083 0.882159 43.1874 -0.598814 36.3775 0.217958C36.2523 0.162895 36.1164 0.130774 35.9754 0.126186C30.6262 -0.061947 26.5328 1.54349 23.8492 4.89146C18.5916 11.4486 20.4953 22.5133 21.0435 25.136C20.9629 25.1585 20.88 25.1641 20.8008 25.1955C19.9449 25.5327 19.3236 26.3495 19.0953 27.437C18.892 28.4058 19.0053 29.5248 19.4142 30.5871C20.163 32.5355 21.6781 33.7802 23.1332 33.7802C23.2888 33.7802 23.4438 33.7653 23.597 33.7362C24.8312 37.7139 26.8898 41.0215 30.2915 43.0517V47.1296H28.5244V58.6309H47.3744V47.1296H45.6065V43.0771C49.0142 41.0495 51.0747 37.7319 52.308 33.738C52.4593 33.7663 52.6121 33.7802 52.7659 33.7802C54.2193 33.7802 55.735 32.5355 56.4849 30.5877C56.8927 29.5248 57.006 28.4058 56.8032 27.437ZM21.0353 29.9475C20.7526 29.2122 20.666 28.4304 20.7974 27.8029C20.9016 27.3074 21.1327 26.9552 21.4317 26.837C21.5127 26.8055 21.6011 26.79 21.6951 26.79C21.8649 26.79 22.053 26.8419 22.2472 26.9388C22.4465 28.6941 22.7296 30.3962 23.1238 32.0126C22.458 31.9992 21.5258 31.2236 21.0353 29.9475ZM46.6048 48.8916C44.8747 50.7334 41.6505 51.9751 37.9494 51.9751C34.2482 51.9751 31.024 50.7334 29.2939 48.8916H31.1615C31.6418 48.8916 32.0315 48.497 32.0315 48.0106V43.9313C33.7268 44.6375 35.6972 45.0786 37.9935 45.1961C40.2526 45.0798 42.1933 44.6452 43.8671 43.9517V48.0106C43.8671 48.497 44.2568 48.8916 44.7371 48.8916H46.6048ZM51.9457 26.0059C51.8885 26.5475 51.8308 27.0887 51.7598 27.6094C51.5787 28.9366 51.3473 30.1896 51.0651 31.3727C50.9586 31.8192 50.8386 32.2479 50.7162 32.6728C49.6496 36.3735 47.9699 39.2563 45.3758 41.1C44.9927 41.3723 44.5779 41.6092 44.1543 41.8361C42.4494 42.7495 40.4278 43.3102 37.9935 43.4363C35.5646 43.3114 33.5433 42.7613 31.8369 41.8639C31.3839 41.6256 30.9449 41.3717 30.5376 41.0825C27.938 39.2372 26.2543 36.3593 25.186 32.6663C25.063 32.2412 24.9426 31.8122 24.8358 31.3656C24.5533 30.1851 24.3214 28.9351 24.1402 27.6113C24.0689 27.0904 24.0108 26.5491 23.9534 26.0072C23.7998 24.5572 23.6903 23.0378 23.6237 21.4461C23.8273 20.1539 24.1254 19.0812 24.4807 18.2024C25.016 18.1107 26.1709 17.8577 27.5308 17.2233C27.7449 17.5233 28.1097 17.7137 28.4801 17.6851C28.6727 17.6753 31.2362 17.5268 33.9459 16.4502C33.9323 16.5746 33.9397 16.7025 33.9691 16.8293C34.0853 17.3226 34.5157 17.6747 35.0164 17.6862C35.2492 17.6937 39.8547 17.751 42.6969 14.4593C43.7935 17.1195 46.2556 21.477 51.2774 24.2124L52.026 25.2571C52.0025 25.5115 51.9722 25.7557 51.9457 26.0059ZM54.8627 29.9475C54.3738 31.2212 53.4441 31.9948 52.7799 32.0118C53.1722 30.3954 53.4539 28.6934 53.6525 26.9381C53.8463 26.8416 54.0339 26.79 54.2034 26.79C54.2975 26.79 54.3858 26.8055 54.4663 26.837C54.8763 26.9988 55.0406 27.5116 55.1018 27.8029C55.2332 28.4304 55.1459 29.2122 54.8627 29.9475ZM35.9754 32.2413V29.7715C35.9754 29.2851 36.365 28.8904 36.8454 28.8904C37.3257 28.8904 37.7154 29.2851 37.7154 29.7715V32.0417H39.0532C39.5335 32.0417 39.9232 32.4363 39.9232 32.9227C39.9232 33.4091 39.5335 33.8037 39.0532 33.8037H37.5182C36.6675 33.8037 35.9754 33.1028 35.9754 32.2413ZM31.8181 26.5758C31.8181 27.5233 31.0595 28.2915 30.1238 28.2915C29.1881 28.2915 28.4296 27.5233 28.4296 26.5758C28.4296 25.6282 29.1881 24.8601 30.1238 24.8601C31.0595 24.8601 31.8181 25.6282 31.8181 26.5758ZM47.4691 26.5758C47.4691 27.5233 46.7105 28.2915 45.7749 28.2915C44.8392 28.2915 44.0806 27.5233 44.0806 26.5758C44.0806 25.6282 44.8392 24.8601 45.7749 24.8601C46.7105 24.8601 47.4691 25.6282 47.4691 26.5758ZM42.2081 37.6685C42.2081 39.0909 40.0082 39.598 37.9493 39.598C35.891 39.598 33.691 39.0909 33.691 37.6685C33.691 37.1821 34.0807 36.7874 34.561 36.7874C34.949 36.7874 35.2775 37.0444 35.3897 37.4C35.6808 37.5744 36.5961 37.8359 37.9493 37.8359C39.303 37.8359 40.2183 37.5744 40.5094 37.3994C40.6216 37.0444 40.9501 36.7874 41.3381 36.7874C41.8184 36.7874 42.2081 37.1821 42.2081 37.6685ZM85.8531 65.1479C85.6027 64.7012 85.214 64.37 84.751 64.1794C84.8236 63.6947 84.7519 63.1848 84.4948 62.7263C84.2446 62.2798 83.8561 61.9487 83.3926 61.7579C83.4651 61.2733 83.3934 60.7633 83.1366 60.3046C82.8795 59.8459 82.4832 59.5231 82.0344 59.3388C82.1073 58.8539 82.036 58.3438 81.7795 57.8853C81.4838 57.3587 81.0046 56.9813 80.428 56.8207C79.8571 56.6613 79.2522 56.737 78.7322 57.0352L77.8505 57.5426C77.6825 57.2647 77.4605 57.0137 77.1882 56.8054V55.8422H82.1182C82.5985 55.8422 82.9882 55.4476 82.9882 54.9606C82.9882 54.4742 82.5985 54.0796 82.1182 54.0796H77.1882V53.1986H82.1182C82.5985 53.1986 82.9882 52.804 82.9882 52.3176C82.9882 51.8312 82.5985 51.4366 82.1182 51.4366H77.1882V50.5556H82.1182C82.5985 50.5556 82.9882 50.1609 82.9882 49.6745C82.9882 49.1882 82.5985 48.7935 82.1182 48.7935H77.1882V47.9125H82.1182C82.5985 47.9125 82.9882 47.5179 82.9882 47.0315C82.9882 46.5451 82.5985 46.1505 82.1182 46.1505H77.1882L77.1939 45.2695H82.1182C82.5985 45.2695 82.9882 44.8749 82.9882 44.3885C82.9882 43.9021 82.5985 43.5075 82.1182 43.5075H77.1939C76.2151 43.5075 75.4482 44.4103 75.4482 45.5632V47.0315V49.6745V49.8076C75.3738 48.8067 75.0077 47.8014 74.3618 46.9357C72.7725 44.8037 70.0504 44.1596 68.2968 45.5018C67.3827 46.2009 66.9195 47.3045 66.8996 48.501C65.7578 48.1927 64.5828 48.3418 63.6681 49.0413C62.7868 49.7147 62.2702 50.8074 62.2509 52.0383C62.2339 53.1779 62.6304 54.3509 63.369 55.342C64.1076 56.332 65.1136 57.0398 66.2011 57.3347C66.5647 57.4333 66.9283 57.4815 67.284 57.4815C68.077 57.4815 68.8269 57.2406 69.4352 56.7748C69.493 56.7307 69.5341 56.6725 69.5884 56.6251L72.317 59.9392L71.3311 62.0899C71.2557 62.2218 71.1872 62.3565 71.1263 62.4972L65.39 65.7926L55.6025 49.5139C55.3623 49.1149 55.07 48.7722 54.7559 48.4579C54.2377 47.7807 53.4897 47.2986 52.6222 47.1431C51.7772 46.8596 50.8765 46.7692 49.9844 46.9205V58.7275C50.1969 58.7944 50.3937 58.8922 50.5648 59.0222C50.8856 59.2659 51.1205 59.609 51.2151 60.0133L51.4344 60.9438L55.4944 78.1735V70.7943L58.7551 76.2179C59.7905 77.9398 61.6041 78.8965 63.4664 78.8965C64.3886 78.8965 65.3231 78.6614 66.1807 78.1681L76.6263 72.1662C76.6694 72.1414 76.7027 72.1069 76.7449 72.0811C76.827 72.0862 76.9085 72.0973 76.9911 72.0973C77.6708 72.0973 78.3595 71.9241 78.9916 71.5605L80.9554 70.431L81.0753 70.5767C81.4719 71.058 82.1714 71.1395 82.6654 70.7617L83.0247 70.4869L83.4035 70.1973L83.7624 69.9229C84.123 69.6472 84.2601 69.1773 84.1616 68.7237L85.0148 68.2326C85.5336 67.9343 85.9063 67.4491 86.0649 66.8652C86.2235 66.2824 86.1476 65.6721 85.8531 65.1479ZM80.791 61.0788L80.9503 60.9872C81.025 60.9447 81.1089 60.9218 81.1927 60.9218C81.2369 60.9218 81.2811 60.9287 81.3252 60.9402C81.4532 60.9757 81.5597 61.0595 81.6243 61.1753C81.7591 61.4151 81.6753 61.7225 81.4385 61.859L81.2799 61.9502L80.1334 62.6099L79.1616 63.1691C79.0471 63.2333 78.9146 63.2494 78.7866 63.2161C78.6597 63.1805 78.5532 63.0968 78.4887 62.9809C78.3539 62.74 78.4366 62.4337 78.6733 62.2972L79.5702 61.7812L80.791 61.0788ZM77.998 59.7071L78.0197 59.6599C78.0358 59.6248 78.0413 59.5877 78.0553 59.5521C78.0715 59.5109 78.0831 59.4689 78.0966 59.4271L79.1825 58.8023L79.592 58.5667C79.6679 58.5243 79.7506 58.5013 79.8356 58.5013C79.8798 58.5013 79.9239 58.507 79.967 58.5197C80.095 58.5552 80.2015 58.639 80.2661 58.7548C80.35 58.9041 80.3409 59.0758 80.2712 59.22C80.2289 59.3074 80.1696 59.3871 80.0803 59.4385L79.4553 59.7981L78.569 60.308L77.8033 60.7486C77.7086 60.8027 77.6018 60.8145 77.4947 60.8004L77.998 59.7071ZM68.0373 54.9004C67.6171 55.2193 67.0824 55.1419 66.8003 55.065C66.218 54.9073 65.6426 54.492 65.22 53.9259C64.7986 53.3598 64.5619 52.6852 64.5709 52.075C64.5755 51.7801 64.6457 51.237 65.066 50.9158C65.2767 50.7552 65.5361 50.6789 65.817 50.6789C66.499 50.6789 67.3123 51.1257 67.8821 51.8903C68.6876 52.9703 68.7578 54.3486 68.0373 54.9004ZM69.8487 50.3864C69.0444 49.3069 68.973 47.928 69.6946 47.3762C69.9053 47.2156 70.1636 47.1393 70.4457 47.1393C71.1277 47.1393 71.9399 47.5867 72.5108 48.3513C72.9334 48.9174 73.1701 49.5919 73.1611 50.2017C73.1565 50.4971 73.0863 51.0397 72.666 51.3609C72.2457 51.6798 71.7111 51.6023 71.429 51.5255C70.8467 51.3677 70.2712 50.9525 69.8487 50.3864ZM72.0889 57.4645C71.692 56.9323 71.7964 56.1751 72.3219 55.7732C72.8474 55.3714 73.5951 55.4771 73.992 56.0093C74.1307 56.1953 74.187 56.4093 74.2066 56.6256C73.8805 56.8397 73.6065 57.1289 73.4352 57.4998L73.2459 57.9126C72.8194 57.9881 72.3678 57.8385 72.0889 57.4645ZM78.9277 69.5702L78.1318 70.0279C77.0205 70.6703 75.5966 70.2722 74.9622 69.1446L72.8121 65.3131C72.5054 64.7663 72.4271 64.1313 72.5922 63.5247L72.6019 63.5035L72.8875 62.8804L75.0132 58.2421C75.0744 58.1096 75.2415 58.0231 75.4482 58.0033C75.6012 57.9886 75.7735 58.0062 75.9523 58.0906C76.1314 58.1752 76.2558 58.2978 76.343 58.4261C76.3627 58.4551 76.386 58.4822 76.4009 58.5117C76.4744 58.6577 76.492 58.8059 76.4417 58.9166L74.6613 62.7865L74.3063 63.558C74.2723 63.6317 74.2648 63.709 74.2521 63.7856C74.1889 64.1663 74.3647 64.5571 74.7277 64.7281C74.8467 64.7843 74.9713 64.8106 75.0936 64.8106C75.2178 64.8106 75.3365 64.7759 75.4482 64.7252V68.9106C75.4482 69.3969 75.8379 69.7916 76.3182 69.7916C76.7985 69.7916 77.1882 69.3969 77.1882 68.9106V65.8556L79.2871 68.4048L79.8228 69.0556L78.9277 69.5702ZM80.5198 65.5896C80.4043 65.6538 80.2695 65.6733 80.1448 65.6366C80.018 65.601 79.9115 65.5173 79.8469 65.4014C79.7121 65.1605 79.7948 64.8542 80.0316 64.7177L81.1346 64.0831L82.1491 63.4994L82.3085 63.4077C82.3833 63.3652 82.4671 63.3423 82.5509 63.3423C82.5951 63.3423 82.6393 63.3492 82.6835 63.3606C82.8104 63.3962 82.9168 63.4799 82.9814 63.5958C83.1162 63.8367 83.0335 64.143 82.7968 64.2795L82.638 64.3708L81.6977 64.9118L80.5198 65.5896ZM84.3872 66.3983C84.3521 66.5268 84.2694 66.6346 84.155 66.7C84.155 66.7 84.155 66.7 84.1539 66.7L83.7459 66.935L83.2621 67.2136L81.8792 68.01C81.7758 68.0706 81.6606 68.0812 81.5514 68.0617C81.4104 68.0366 81.28 67.957 81.204 67.8219C81.0692 67.581 81.153 67.2747 81.3898 67.1382L82.6989 66.385L83.0517 66.182L83.6668 65.8282C83.7415 65.7857 83.8254 65.7628 83.9092 65.7628C83.9224 65.7628 83.9353 65.7672 83.9485 65.7683C83.9794 65.771 84.0104 65.7731 84.0406 65.7811C84.1686 65.8167 84.2739 65.9004 84.3408 66.0186C84.4053 66.1345 84.4223 66.2687 84.3872 66.3983ZM55.3245 91.9027L54.8401 80.4911C54.8378 80.4612 54.8344 80.4314 54.8265 80.4016L50.0868 60.2851C50.0693 60.2097 50.0324 60.1417 49.9844 60.0801C49.8551 59.9141 49.6311 59.8056 49.3799 59.8056H26.5186C26.2674 59.8056 26.0436 59.9147 25.9144 60.0801C25.8664 60.1415 25.8294 60.2092 25.8118 60.284L21.649 77.9538L21.1233 77.6538L21.0013 77.5842C20.8651 77.5085 20.728 77.4465 20.591 77.3838L24.4644 60.9422L24.6268 60.2529L24.6835 60.0121C24.7784 59.6079 25.0134 59.2651 25.3343 59.0217C25.5053 58.8919 25.702 58.7942 25.9144 58.7274V47.0811V46.9635C23.8846 46.2978 21.5688 46.8612 20.0735 48.5888L1.3685 70.1736C0.330844 71.3712 -0.151734 72.96 0.0419769 74.5408C0.235688 76.1227 1.08813 77.544 2.3835 78.448L13.1135 85.9366C13.4484 86.1705 13.8035 86.3463 14.1652 86.4958C14.6046 87.0066 15.1276 87.4429 15.7173 87.7755L19.498 89.9083L20.0649 90.2282L20.4043 90.4197L20.6037 90.5321C20.6134 90.5376 20.624 90.539 20.6338 90.5443L20.575 91.904L20.5204 93.1671C20.513 93.3392 20.5974 93.4665 20.6699 93.5434C20.8081 93.6902 21.016 93.7739 21.2392 93.7739H54.6588C54.882 93.7739 55.0904 93.6902 55.2286 93.5434C55.3011 93.4665 55.3861 93.3392 55.3782 93.1671L55.3245 91.9027ZM13.7371 72.8189L20.4044 65.1253V77.297C20.1854 77.206 19.9661 77.1348 19.747 77.0748C19.6188 76.9668 19.5067 76.8456 19.3666 76.7479L13.7371 72.8189ZM26.7933 83.2534C26.7146 83.3968 26.5288 83.4507 26.3906 83.3704C26.3901 83.3704 26.3901 83.3704 26.3901 83.3704L22.4354 81.1392C22.2161 81.0157 21.9579 81.0232 21.726 81.1145C21.5142 81.1978 21.3239 81.3501 21.212 81.5522C21.0987 81.7564 21.0704 81.9973 21.1332 82.2233C21.1961 82.4481 21.3451 82.6385 21.5467 82.7532L21.55 82.7551L26.2841 85.4273C26.3759 85.4789 26.411 85.5626 26.4235 85.6074C26.4365 85.6521 26.4501 85.7416 26.398 85.8356C26.3476 85.9286 26.2655 85.963 26.2207 85.9767C26.176 85.9894 26.0865 86.0031 25.9958 85.9515L21.3698 83.3404L21.2584 83.2775C21.1626 83.2234 21.0578 83.1996 20.9519 83.1908C20.7622 83.175 20.5741 83.2343 20.4044 83.3355C20.3886 83.3449 20.3722 83.3523 20.357 83.3625C20.2273 83.4493 20.11 83.5545 20.0338 83.6916C19.9211 83.8958 19.8928 84.1379 19.9557 84.3627C20.0095 84.5551 20.1356 84.7127 20.2946 84.8284C20.3214 84.8479 20.3401 84.8763 20.3692 84.8927L20.4044 84.9125L20.4455 84.9358L20.8662 85.1731L24.3238 87.1239C24.4161 87.1755 24.4513 87.2593 24.4637 87.3051C24.4767 87.3499 24.4903 87.4382 24.4382 87.5323C24.3873 87.6252 24.3057 87.6608 24.2609 87.6734C24.2173 87.686 24.129 87.7009 24.0361 87.6481L20.8372 85.8438L20.4044 85.5997L20.2652 85.5211L20.0248 85.3856L19.6982 85.2013L19.6391 85.168C19.3632 85.0131 18.9418 85.0728 18.6728 85.2426C18.4117 85.4078 18.2565 85.7003 18.2638 86.0112C18.268 86.1756 18.3218 86.3287 18.4067 86.4624C18.4829 86.5824 18.5832 86.6875 18.7102 86.7591L19.6103 87.267L20.1772 87.5869L20.4044 87.7151L20.7479 87.9089L21.7393 88.4684C21.8305 88.52 21.865 88.6037 21.8781 88.6485C21.8905 88.6932 21.9041 88.7827 21.8531 88.8756C21.775 89.0178 21.5881 89.0741 21.4504 88.9926L20.7188 88.5798L20.4044 88.4024L20.1487 88.2581L19.5818 87.9383L17.5107 86.7698L16.5646 86.236C15.7547 85.7794 15.1169 85.0487 14.7691 84.178C14.2979 83.001 14.3511 81.7139 14.9107 80.7354C15.5921 79.5447 16.9033 78.6648 18.3624 78.6648C18.9537 78.6648 19.5696 78.8136 20.1773 79.1399C20.1948 79.1493 20.2123 79.1553 20.2298 79.165L20.4044 79.2646L20.7036 79.4354L21.2292 79.7355L21.5413 79.9137L26.6778 82.8462C26.7701 82.8978 26.8052 82.9827 26.8177 83.0274C26.8307 83.0722 26.8443 83.1616 26.7933 83.2534ZM48.303 78.8848C48.2781 80.4325 46.8035 81.1081 46.0516 79.9128L45.2953 78.7122C45.0941 79.4246 44.788 80.0936 44.3919 80.7031C44.395 80.7978 44.4043 80.8906 44.4043 80.9861C44.4043 84.9797 41.5146 88.2176 37.9494 88.2176C34.3841 88.2176 31.4944 84.9797 31.4944 80.9861C31.4944 80.8906 31.5037 80.7978 31.5068 80.7031C31.1101 80.0936 30.8039 79.4246 30.6028 78.7122L29.8471 79.9128C29.0952 81.1081 27.6206 80.4325 27.5951 78.8848C27.5833 78.162 27.5579 77.4116 27.5106 76.6762C27.3461 74.0933 30.8182 72.8823 32.3829 72.4679C33.775 71.4549 35.7501 70.9991 37.9494 70.9991C40.148 70.9991 42.1237 71.4549 43.5158 72.4679C45.0805 72.8823 48.5526 74.0933 48.388 76.6762C48.3409 77.4116 48.3154 78.162 48.303 78.8848ZM35.3042 84.2484C35.3042 83.1603 36.4885 82.2783 37.9494 82.2783C39.4103 82.2783 40.5945 83.1603 40.5945 84.2484C40.5945 85.3364 39.4103 86.2185 37.9494 86.2185C36.4885 86.2185 35.3042 85.3364 35.3042 84.2484Z" fill="#124C5F"/>
</svg>
