<svg width="107" height="74" viewBox="0 0 107 74" fill="none" xmlns="http://www.w3.org/2000/svg">
<path d="M74.8759 45.4053C72.3759 44.9983 69.903 46.3452 68.8582 48.6808C68.6557 49.1339 68.5179 49.6034 68.4387 50.0779C71.0188 48.8048 73.2739 47.2701 75.2207 45.4614L74.8759 45.4053Z" fill="#124C5F"/>
<path d="M77.1953 22.7799C81.8826 19.6913 83.2102 13.34 80.1605 8.59374C77.1108 3.84751 70.8388 2.5037 66.1514 5.59225C61.4641 8.68081 60.1366 15.0322 63.1862 19.7784C66.2359 24.5246 72.508 25.8684 77.1953 22.7799Z" fill="#124C5F"/>
<path d="M95.7812 25.3685C91.4019 19.8773 85.4541 19.8144 82.1686 22.0543C78.8841 24.2928 79.124 29.9805 81.8671 33.7993C81.9917 34.0099 82.1241 34.2292 82.2537 34.4461C83.199 31.5417 83.3322 29.4335 83.3335 29.4043C83.4299 26.9402 85.4036 25.0166 87.828 25.0166C87.8843 25.0166 87.9405 25.0175 87.9968 25.0198C90.4769 25.1119 92.4206 27.2301 92.3292 29.7421V29.7498L92.3265 29.7904C92.2527 31.1971 91.7773 36.2534 88.7624 42.2625C88.4879 42.814 88.1642 43.4184 87.7929 44.0584C88.4249 45.2809 89.0325 46.5298 89.5866 47.7984L85.7475 47.1739C83.1508 50.6965 79.1785 54.6926 73.2626 57.8236L90.4261 72.2101C91.4758 73.0903 92.7469 73.5192 94.0108 73.5192C95.629 73.5192 97.235 72.8154 98.3482 71.4548C100.329 69.0303 99.9952 65.439 97.6014 63.4329L93.4743 59.9719L94.8093 60.1898C95.223 60.2568 95.6322 60.2732 96.0341 60.2495C97.0037 60.2964 98.1438 59.9532 99.546 59.4586C103.441 58.0839 107.857 55.6603 106.709 48.2747C104.392 38.3534 101.757 32.9551 95.7812 25.3685Z" fill="#124C5F"/>
<path d="M87.9605 41.8486C91.2013 35.3897 91.4106 30.0438 91.43 29.7079C91.5029 27.695 89.9522 26.0039 87.9645 25.9305C85.9799 25.8558 84.3122 27.4224 84.2344 29.4308L84.2339 29.4303C84.2281 29.6623 83.9278 34.0587 81.2978 39.013C78.6398 43.9745 73.8614 49.5492 64.1878 52.8105C62.2991 53.4414 61.2729 55.5031 61.8972 57.4161C62.3964 58.9486 63.8043 59.9204 65.3163 59.9204C65.6903 59.9204 66.0707 59.8607 66.4452 59.7358C78.2725 55.8162 84.7502 48.2984 87.9605 41.8486Z" fill="#124C5F"/>
<path d="M40.5335 59.1929C42.1701 59.5074 44.1398 60.027 44.6606 60.5854C46.0628 62.0837 46.7478 65.1782 48.5659 65.3952C49.8361 65.5465 50.2822 65.5187 51.8558 64.4904C53.4092 63.473 51.9341 59.5119 51.5632 57.99C51.0375 55.8303 52.2911 53.4582 52.3104 53.3133C52.3262 53.1929 53.406 50.8997 56.5276 51.7703C57.6178 52.0766 56.9795 50.0359 55.2722 49.0163C53.2422 47.8056 51.7734 48.3699 50.2894 49.5487C47.4239 47.3279 42.9349 47.7614 40.3827 48.7287C39.9749 50.412 39.8169 52.0406 39.8169 53.5389C39.8155 55.8166 40.1756 57.7917 40.5335 59.1929ZM47.8092 54.4018C48.4763 53.9409 49.3864 54.1155 49.842 54.791C50.2966 55.467 50.1242 56.3891 49.4571 56.849C48.7882 57.3099 47.879 57.1358 47.4235 56.4598C46.9693 55.7843 47.1408 54.8621 47.8092 54.4018Z" fill="#124C5F"/>
<path d="M38.5431 48.6771C37.8787 48.6867 37.2459 48.6671 36.6423 48.6197C36.4307 48.5663 36.2119 48.533 35.9828 48.5449C35.9689 48.5458 35.9563 48.5504 35.9423 48.5513C26.7603 47.4952 24.2608 40.4614 13.5336 47.7609C10.2936 46.7968 6.43069 44.7242 3.50491 40.3014C2.91345 39.4121 1.72289 39.1792 0.847403 39.7782C-0.0325804 40.3757 -0.264842 41.5805 0.328866 42.4702C3.11195 46.6346 6.55132 49.0741 9.77868 50.5031C9.74087 50.5833 9.70125 50.6786 9.66164 50.7697C8.83432 52.0301 8.1866 53.6906 7.76529 55.9036C7.70633 56.2268 5.07943 73.2032 9.20522 73.2032C13.331 73.2032 14.464 60.3611 16.7677 58.7169C17.0922 58.7461 23.2125 65.2401 28.4402 64.4237C29.665 64.2314 31.3232 63.4656 32.7051 62.6511L34.9665 71.8185C35.2203 72.8473 36.1282 73.5451 37.1464 73.5451C37.2576 73.5451 37.3706 73.5369 37.4835 73.5196C38.6318 73.345 39.4587 72.3212 39.3979 71.1466L38.8109 59.732C38.4157 58.2091 38.0169 56.0559 38.0151 53.5388C38.0156 52.026 38.1628 50.3841 38.5431 48.6771Z" fill="#124C5F"/>
<path d="M58.6261 71.0969H58.058L56.8985 67.4586H43.9085L42.749 71.0969H42.1801C41.7228 71.0969 41.351 71.473 41.351 71.937C41.351 72.4006 41.7228 72.7766 42.1801 72.7766H58.6261C59.0834 72.7766 59.4552 72.4006 59.4552 71.937C59.4552 71.473 59.083 71.0969 58.6261 71.0969Z" fill="#124C5F"/>
</svg>
