<svg width="65" height="72" viewBox="0 0 65 72" fill="none" xmlns="http://www.w3.org/2000/svg">
<path d="M13.0295 56.7451L15.442 48.0834L14.5647 45.5293C12.7005 45.1961 11.1653 44.1967 10.1784 42.8641L6.88859 54.5241L0.418678 66.1841C-0.458597 67.7388 0.0897 69.7376 1.62493 70.626C3.16016 71.5144 5.13403 70.9592 6.01131 69.4045L12.8102 57.4114C12.9199 57.1893 13.0295 56.9672 13.0295 56.7451Z" fill="#124C5F"/>
<path d="M2.06368 32.87C3.05062 33.4253 4.36653 32.9811 4.91483 31.8706L9.8495 21.6542L10.7268 20.9879L11.1654 18.2117C11.3847 16.7681 12.0427 15.4355 12.92 14.3251L6.99836 18.2117C6.66938 18.4338 6.45006 18.767 6.23074 19.1001L1.07675 29.8717C0.52845 30.9822 0.967087 32.3148 2.06368 32.87Z" fill="#124C5F"/>
<path d="M20.4862 11.9931C23.7567 11.9931 26.4079 9.30838 26.4079 5.99657C26.4079 2.68475 23.7567 0 20.4862 0C17.2158 0 14.5646 2.68475 14.5646 5.99657C14.5646 9.30838 17.2158 11.9931 20.4862 11.9931Z" fill="#124C5F"/>
<path d="M59.0866 56.7451C59.0866 56.7451 59.1962 56.8561 59.1962 56.9672C60.0735 56.4119 60.4025 55.1904 60.4025 55.1904C63.6923 56.1898 64.3502 53.0805 64.3502 53.0805C64.7889 52.1921 62.5957 51.3038 62.5957 51.3038C62.486 49.0828 59.9638 48.4165 59.9638 48.4165C58.7576 47.306 59.0866 48.4165 59.0866 48.4165C57.8803 48.3055 57.1127 48.7497 57.1127 48.7497C55.1388 46.8619 53.9326 49.7491 53.9326 49.7491C53.6036 49.7491 53.3843 49.8601 53.0553 49.8601C55.0292 52.5253 57.1127 54.8573 59.0866 56.7451Z" fill="#124C5F"/>
<path d="M61.828 63.5191C61.2797 62.9639 57.3319 60.5208 57.3319 60.5208C58.2092 60.0766 58.3189 58.1888 58.3189 57.5225C56.2353 55.5237 54.0421 52.9696 51.849 50.0824C50.7524 50.3044 43.5148 53.4138 36.4966 50.1934C33.8648 48.9719 31.562 50.7486 31.562 50.7486C29.5881 53.0806 30.4654 56.8563 30.4654 56.8563L33.2068 53.858C34.6324 52.7475 35.1807 52.9696 35.5097 53.5248C35.729 53.969 35.6194 54.5243 35.2904 54.9684C32.6586 57.7446 33.5358 60.6319 33.5358 60.6319L29.8074 63.9633C28.3818 65.518 30.0267 66.7395 30.0267 66.7395C30.3557 65.518 32.9875 63.6302 32.9875 63.6302C32.8779 65.0738 33.5358 65.4069 33.5358 65.4069C35.4 64.8517 34.9614 62.9639 34.9614 62.9639C37.9222 62.8528 38.2512 61.5203 38.2512 61.5203C41.212 62.0755 42.6376 60.0766 42.6376 60.0766C43.4052 61.5203 50.0944 63.0749 50.0944 63.0749C50.533 63.297 53.0552 68.4052 53.0552 68.4052C53.6035 68.5162 54.1518 69.2936 54.1518 69.2936C55.3581 70.0709 57.8802 69.1825 57.8802 69.1825C57.6609 68.1831 56.345 68.1831 56.345 68.1831C53.3842 68.1831 53.8228 63.186 53.8228 63.186C53.9325 62.5197 56.2353 63.7412 56.2353 63.7412L61.2797 65.629C63.8018 66.9616 64.8984 65.4069 64.8984 65.4069C65.666 64.1854 61.828 63.5191 61.828 63.5191Z" fill="#124C5F"/>
<path d="M37.0448 23.9862C39.567 29.6496 44.9403 40.8654 51.8488 49.9713C52.1778 49.8603 52.6164 49.8603 53.0551 49.7492C52.9454 49.6382 52.8358 49.5271 52.7261 49.305C45.8176 40.3102 40.4442 29.0944 38.0317 23.542C37.5931 23.8751 37.1545 23.9862 37.0448 23.9862Z" fill="#124C5F"/>
<path d="M36.9352 22.8757C38.0318 22.4315 38.6898 21.21 38.2512 20.0995C37.8125 18.9891 36.6063 18.3228 35.5097 18.767L29.5881 20.8769C22.6795 14.3251 22.3505 13.2146 19.6091 12.7704C16.0999 12.2152 12.8102 14.7693 12.2619 18.3228L9.63004 36.9788C9.08174 40.5323 11.6039 43.8637 15.113 44.4189C15.2227 44.4189 15.3323 44.4189 15.442 44.4189L18.2931 53.0807L12.4812 61.7424C11.4943 63.186 11.8232 65.2959 13.3585 66.2953C14.784 67.2947 16.8676 66.9616 17.8545 65.4069L24.6534 55.4127C25.2017 54.5243 25.421 53.5248 25.092 52.5254L21.4733 41.5317C22.0216 40.7544 22.4602 39.7549 22.5699 38.7555L24.9824 22.2094L27.7239 24.8746C28.2721 25.4298 29.1494 25.6519 29.917 25.3188L36.9352 22.8757Z" fill="#124C5F"/>
</svg>
