<svg width="64" height="65" viewBox="0 0 64 65" fill="none" xmlns="http://www.w3.org/2000/svg">
<path d="M45.8776 28.8939L51.9217 22.7733C52.6404 23.0118 53.3934 23.1733 54.1906 23.1733H56.6436C60.7081 23.1733 64.0025 19.8373 64.0025 15.7213C64.0025 11.6053 60.7081 8.26925 56.6436 8.26925H55.839V7.45201C55.839 3.33602 52.5447 0 48.4802 0C44.4156 0 41.1213 3.33602 41.1213 7.45201V9.93601C41.1213 10.7433 41.2808 11.5059 41.5162 12.2337L35.4722 18.3543L45.8776 28.8939Z" fill="#124C5F"/>
<path d="M18.1249 35.9185L12.0808 42.039C11.3621 41.8006 10.609 41.6391 9.81181 41.6391H7.35886C3.29432 41.6391 0 44.9751 0 49.0911C0 53.2071 3.29432 56.5431 7.35886 56.5431H8.16343V57.3579C8.16343 61.4739 11.4577 64.8099 15.5223 64.8099C19.5868 64.8099 22.8811 61.4739 22.8811 57.3579V54.8739C22.8811 54.0666 22.7217 53.304 22.4862 52.5762L28.5303 46.4556L18.1249 35.9185Z" fill="#124C5F"/>
<path d="M56.6436 41.6393H54.1906C53.3934 41.6393 52.6404 41.8008 51.9217 42.0393L22.4887 12.2337C22.7242 11.5059 22.8836 10.7433 22.8836 9.93601V7.45201C22.8836 3.33602 19.5893 0 15.5247 0C11.4602 0 8.16588 3.33602 8.16588 7.45201V8.26676H7.35886C3.29432 8.26676 0 11.6028 0 15.7188C0 19.8348 3.29432 23.1708 7.35886 23.1708H9.81181C10.609 23.1708 11.3621 23.0093 12.0808 22.7709L41.5138 52.5764C41.2783 53.3042 41.1189 54.0668 41.1189 54.8741V57.3581C41.1189 61.4741 44.4132 64.8101 48.4777 64.8101C52.5423 64.8101 55.8366 61.4741 55.8366 57.3581V56.5434H56.6411C60.7057 56.5434 64 53.2073 64 49.0914C64 44.9754 60.7081 41.6393 56.6436 41.6393Z" fill="#124C5F"/>
</svg>
